<mxfile host="app.diagrams.net" agent="Mozilla/5.0 (Windows NT 10.0; Win64; x64) AppleWebKit/537.36 (KHTML, like Gecko) Chrome/135.0.0.0 Safari/537.36" version="26.2.12">
  <diagram name="Página-1" id="dHwF37J-1fEgpBwBaK5W">
    <mxGraphModel dx="835" dy="483" grid="1" gridSize="10" guides="1" tooltips="1" connect="1" arrows="1" fold="1" page="1" pageScale="1" pageWidth="827" pageHeight="1169" background="none" math="0" shadow="0">
      <root>
        <mxCell id="0" />
        <mxCell id="1" parent="0" />
        <mxCell id="lp5TfcnnT8AgeR-IBZOP-1" value="" style="whiteSpace=wrap;html=1;aspect=fixed;" vertex="1" parent="1">
          <mxGeometry x="660" y="240" width="520" height="520" as="geometry" />
        </mxCell>
        <mxCell id="lp5TfcnnT8AgeR-IBZOP-7" style="edgeStyle=orthogonalEdgeStyle;rounded=0;orthogonalLoop=1;jettySize=auto;html=1;entryX=0;entryY=0.5;entryDx=0;entryDy=0;endArrow=block;endFill=1;" edge="1" parent="1" source="lp5TfcnnT8AgeR-IBZOP-4" target="lp5TfcnnT8AgeR-IBZOP-5">
          <mxGeometry relative="1" as="geometry" />
        </mxCell>
        <mxCell id="lp5TfcnnT8AgeR-IBZOP-13" style="edgeStyle=orthogonalEdgeStyle;rounded=0;orthogonalLoop=1;jettySize=auto;html=1;entryX=0;entryY=0.5;entryDx=0;entryDy=0;endArrow=block;endFill=1;" edge="1" parent="1" source="lp5TfcnnT8AgeR-IBZOP-4" target="lp5TfcnnT8AgeR-IBZOP-12">
          <mxGeometry relative="1" as="geometry" />
        </mxCell>
        <mxCell id="lp5TfcnnT8AgeR-IBZOP-4" value="Usuário" style="shape=umlActor;verticalLabelPosition=bottom;verticalAlign=top;html=1;outlineConnect=0;" vertex="1" parent="1">
          <mxGeometry x="560" y="280" width="30" height="60" as="geometry" />
        </mxCell>
        <mxCell id="lp5TfcnnT8AgeR-IBZOP-18" style="edgeStyle=orthogonalEdgeStyle;rounded=0;orthogonalLoop=1;jettySize=auto;html=1;exitX=1;exitY=0.5;exitDx=0;exitDy=0;entryX=0;entryY=0.3333333333333333;entryDx=0;entryDy=0;entryPerimeter=0;" edge="1" parent="1" source="lp5TfcnnT8AgeR-IBZOP-5" target="lp5TfcnnT8AgeR-IBZOP-14">
          <mxGeometry relative="1" as="geometry">
            <Array as="points">
              <mxPoint x="880" y="390" />
              <mxPoint x="1090" y="390" />
              <mxPoint x="1090" y="300" />
            </Array>
          </mxGeometry>
        </mxCell>
        <mxCell id="lp5TfcnnT8AgeR-IBZOP-5" value="Realizar login" style="ellipse;whiteSpace=wrap;html=1;" vertex="1" parent="1">
          <mxGeometry x="760" y="320" width="120" height="80" as="geometry" />
        </mxCell>
        <mxCell id="lp5TfcnnT8AgeR-IBZOP-17" style="edgeStyle=orthogonalEdgeStyle;rounded=0;orthogonalLoop=1;jettySize=auto;html=1;exitX=1;exitY=0.5;exitDx=0;exitDy=0;endArrow=block;endFill=1;" edge="1" parent="1" source="lp5TfcnnT8AgeR-IBZOP-12" target="lp5TfcnnT8AgeR-IBZOP-14">
          <mxGeometry relative="1" as="geometry" />
        </mxCell>
        <mxCell id="lp5TfcnnT8AgeR-IBZOP-12" value="Recuperar senha" style="ellipse;whiteSpace=wrap;html=1;" vertex="1" parent="1">
          <mxGeometry x="760" y="520" width="120" height="80" as="geometry" />
        </mxCell>
        <mxCell id="lp5TfcnnT8AgeR-IBZOP-16" style="edgeStyle=orthogonalEdgeStyle;rounded=0;orthogonalLoop=1;jettySize=auto;html=1;entryX=1;entryY=0.5;entryDx=0;entryDy=0;endArrow=block;endFill=1;" edge="1" parent="1" source="lp5TfcnnT8AgeR-IBZOP-14" target="lp5TfcnnT8AgeR-IBZOP-15">
          <mxGeometry relative="1" as="geometry" />
        </mxCell>
        <mxCell id="lp5TfcnnT8AgeR-IBZOP-14" value="Sistema" style="shape=umlActor;verticalLabelPosition=bottom;verticalAlign=top;html=1;outlineConnect=0;" vertex="1" parent="1">
          <mxGeometry x="1241" y="280" width="30" height="60" as="geometry" />
        </mxCell>
        <mxCell id="lp5TfcnnT8AgeR-IBZOP-15" value="Enviar e-mail de recuperação" style="ellipse;whiteSpace=wrap;html=1;" vertex="1" parent="1">
          <mxGeometry x="970" y="610" width="120" height="80" as="geometry" />
        </mxCell>
        <mxCell id="lp5TfcnnT8AgeR-IBZOP-20" style="edgeStyle=orthogonalEdgeStyle;rounded=0;orthogonalLoop=1;jettySize=auto;html=1;entryX=1;entryY=0;entryDx=0;entryDy=0;endArrow=block;endFill=1;dashed=1;exitX=0;exitY=0.5;exitDx=0;exitDy=0;" edge="1" parent="1" source="lp5TfcnnT8AgeR-IBZOP-19" target="lp5TfcnnT8AgeR-IBZOP-5">
          <mxGeometry relative="1" as="geometry">
            <Array as="points">
              <mxPoint x="920" y="320" />
              <mxPoint x="920" y="332" />
            </Array>
          </mxGeometry>
        </mxCell>
        <mxCell id="lp5TfcnnT8AgeR-IBZOP-25" value="EXTEND" style="edgeLabel;html=1;align=center;verticalAlign=middle;resizable=0;points=[];fontSize=9;" vertex="1" connectable="0" parent="lp5TfcnnT8AgeR-IBZOP-20">
          <mxGeometry x="0.3292" y="1" relative="1" as="geometry">
            <mxPoint x="8" as="offset" />
          </mxGeometry>
        </mxCell>
        <mxCell id="lp5TfcnnT8AgeR-IBZOP-19" value="Realizar login por rede social" style="ellipse;whiteSpace=wrap;html=1;" vertex="1" parent="1">
          <mxGeometry x="940" y="280" width="120" height="80" as="geometry" />
        </mxCell>
        <mxCell id="lp5TfcnnT8AgeR-IBZOP-26" value="LOJA DE SAPATOS CELSÃO" style="text;html=1;align=center;verticalAlign=middle;resizable=0;points=[];autosize=1;strokeColor=none;fillColor=none;" vertex="1" parent="1">
          <mxGeometry x="830" y="218" width="180" height="30" as="geometry" />
        </mxCell>
      </root>
    </mxGraphModel>
  </diagram>
</mxfile>
